%TF.GenerationSoftware,KiCad,Pcbnew,6.0.8-f2edbf62ab~116~ubuntu22.04.1*%
%TF.CreationDate,2022-10-16T01:51:03-07:00*%
%TF.ProjectId,bracelet-pcb,62726163-656c-4657-942d-7063622e6b69,rev?*%
%TF.SameCoordinates,Original*%
%TF.FileFunction,Paste,Top*%
%TF.FilePolarity,Positive*%
%FSLAX46Y46*%
G04 Gerber Fmt 4.6, Leading zero omitted, Abs format (unit mm)*
G04 Created by KiCad (PCBNEW 6.0.8-f2edbf62ab~116~ubuntu22.04.1) date 2022-10-16 01:51:03*
%MOMM*%
%LPD*%
G01*
G04 APERTURE LIST*
G04 Aperture macros list*
%AMRoundRect*
0 Rectangle with rounded corners*
0 $1 Rounding radius*
0 $2 $3 $4 $5 $6 $7 $8 $9 X,Y pos of 4 corners*
0 Add a 4 corners polygon primitive as box body*
4,1,4,$2,$3,$4,$5,$6,$7,$8,$9,$2,$3,0*
0 Add four circle primitives for the rounded corners*
1,1,$1+$1,$2,$3*
1,1,$1+$1,$4,$5*
1,1,$1+$1,$6,$7*
1,1,$1+$1,$8,$9*
0 Add four rect primitives between the rounded corners*
20,1,$1+$1,$2,$3,$4,$5,0*
20,1,$1+$1,$4,$5,$6,$7,0*
20,1,$1+$1,$6,$7,$8,$9,0*
20,1,$1+$1,$8,$9,$2,$3,0*%
G04 Aperture macros list end*
%ADD10RoundRect,0.250000X0.450000X-0.350000X0.450000X0.350000X-0.450000X0.350000X-0.450000X-0.350000X0*%
%ADD11RoundRect,0.250000X-0.450000X0.350000X-0.450000X-0.350000X0.450000X-0.350000X0.450000X0.350000X0*%
%ADD12R,1.200000X0.900000*%
%ADD13R,2.000000X0.900000*%
%ADD14R,0.900000X2.000000*%
%ADD15R,5.000000X5.000000*%
%ADD16R,0.700000X0.340000*%
%ADD17RoundRect,0.250000X-0.337500X-0.475000X0.337500X-0.475000X0.337500X0.475000X-0.337500X0.475000X0*%
%ADD18RoundRect,0.250001X-0.462499X-0.849999X0.462499X-0.849999X0.462499X0.849999X-0.462499X0.849999X0*%
%ADD19RoundRect,0.250000X-0.475000X0.337500X-0.475000X-0.337500X0.475000X-0.337500X0.475000X0.337500X0*%
%ADD20RoundRect,0.250000X0.475000X-0.337500X0.475000X0.337500X-0.475000X0.337500X-0.475000X-0.337500X0*%
G04 APERTURE END LIST*
D10*
%TO.C,R7*%
X139000000Y-113000000D03*
X139000000Y-111000000D03*
%TD*%
%TO.C,R6*%
X143000000Y-126000000D03*
X143000000Y-124000000D03*
%TD*%
D11*
%TO.C,R5*%
X140000000Y-124000000D03*
X140000000Y-126000000D03*
%TD*%
D12*
%TO.C,D2*%
X146000000Y-126650000D03*
X146000000Y-123350000D03*
%TD*%
D13*
%TO.C,U2*%
X118500000Y-108745000D03*
X118500000Y-110015000D03*
X118500000Y-111285000D03*
X118500000Y-112555000D03*
X118500000Y-113825000D03*
X118500000Y-115095000D03*
X118500000Y-116365000D03*
X118500000Y-117635000D03*
X118500000Y-118905000D03*
X118500000Y-120175000D03*
X118500000Y-121445000D03*
X118500000Y-122715000D03*
X118500000Y-123985000D03*
X118500000Y-125255000D03*
D14*
X121285000Y-126255000D03*
X122555000Y-126255000D03*
X123825000Y-126255000D03*
X125095000Y-126255000D03*
X126365000Y-126255000D03*
X127635000Y-126255000D03*
X128905000Y-126255000D03*
X130175000Y-126255000D03*
X131445000Y-126255000D03*
X132715000Y-126255000D03*
D13*
X135500000Y-125255000D03*
X135500000Y-123985000D03*
X135500000Y-122715000D03*
X135500000Y-121445000D03*
X135500000Y-120175000D03*
X135500000Y-118905000D03*
X135500000Y-117635000D03*
X135500000Y-116365000D03*
X135500000Y-115095000D03*
X135500000Y-113825000D03*
X135500000Y-112555000D03*
X135500000Y-111285000D03*
X135500000Y-110015000D03*
X135500000Y-108745000D03*
D15*
X126000000Y-116245000D03*
%TD*%
D16*
%TO.C,U1*%
X107166120Y-113475000D03*
X107166120Y-112975000D03*
X107166120Y-112475000D03*
X108666120Y-112475000D03*
X108666120Y-112975000D03*
X108666120Y-113475000D03*
%TD*%
D10*
%TO.C,R4*%
X143000000Y-113000000D03*
X143000000Y-111000000D03*
%TD*%
%TO.C,R3*%
X143000000Y-117000000D03*
X143000000Y-115000000D03*
%TD*%
D17*
%TO.C,R2*%
X106953620Y-115975000D03*
X104878620Y-115975000D03*
%TD*%
%TO.C,R1*%
X104916120Y-113975000D03*
X102841120Y-113975000D03*
%TD*%
D18*
%TO.C,L1*%
X109078620Y-108975000D03*
X106753620Y-108975000D03*
%TD*%
D19*
%TO.C,C4*%
X103916120Y-112012500D03*
X103916120Y-109937500D03*
%TD*%
%TO.C,C3*%
X111916120Y-111012500D03*
X111916120Y-108937500D03*
%TD*%
%TO.C,C2*%
X113916120Y-111012500D03*
X113916120Y-108937500D03*
%TD*%
D20*
%TO.C,C1*%
X111916120Y-112937500D03*
X111916120Y-115012500D03*
%TD*%
M02*
