%TF.GenerationSoftware,KiCad,Pcbnew,6.0.8-f2edbf62ab~116~ubuntu22.04.1*%
%TF.CreationDate,2022-10-16T01:51:03-07:00*%
%TF.ProjectId,bracelet-pcb,62726163-656c-4657-942d-7063622e6b69,rev?*%
%TF.SameCoordinates,Original*%
%TF.FileFunction,Copper,L2,Bot*%
%TF.FilePolarity,Positive*%
%FSLAX46Y46*%
G04 Gerber Fmt 4.6, Leading zero omitted, Abs format (unit mm)*
G04 Created by KiCad (PCBNEW 6.0.8-f2edbf62ab~116~ubuntu22.04.1) date 2022-10-16 01:51:03*
%MOMM*%
%LPD*%
G01*
G04 APERTURE LIST*
%TA.AperFunction,ComponentPad*%
%ADD10O,1.700000X1.700000*%
%TD*%
%TA.AperFunction,ComponentPad*%
%ADD11R,1.700000X1.700000*%
%TD*%
%TA.AperFunction,ComponentPad*%
%ADD12R,1.800000X1.800000*%
%TD*%
%TA.AperFunction,ComponentPad*%
%ADD13C,1.800000*%
%TD*%
%TA.AperFunction,ViaPad*%
%ADD14C,0.800000*%
%TD*%
G04 APERTURE END LIST*
D10*
%TO.P,J3,2,Pin_2*%
%TO.N,+3.3V*%
X157000000Y-108460000D03*
D11*
%TO.P,J3,1,Pin_1*%
%TO.N,Net-(U2-Pad30)*%
X157000000Y-111000000D03*
%TD*%
D10*
%TO.P,J2,2,Pin_2*%
%TO.N,Net-(R5-Pad2)*%
X157000000Y-119540000D03*
D11*
%TO.P,J2,1,Pin_1*%
%TO.N,GND*%
X157000000Y-117000000D03*
%TD*%
%TO.P,J1,1,Pin_1*%
%TO.N,GND*%
X98000000Y-119000000D03*
D10*
%TO.P,J1,2,Pin_2*%
%TO.N,+9V*%
X98000000Y-121540000D03*
%TD*%
D12*
%TO.P,D1,1,A1*%
%TO.N,Net-(D1-Pad1)*%
X147000000Y-111450000D03*
D13*
%TO.P,D1,2,K*%
%TO.N,GND*%
X147000000Y-113990000D03*
%TO.P,D1,3,A2*%
%TO.N,Net-(D1-Pad3)*%
X147000000Y-116530000D03*
%TD*%
D14*
%TO.N,GND*%
X139000000Y-109000000D03*
X116000000Y-108000000D03*
X122000000Y-121000000D03*
X109941120Y-112475000D03*
%TD*%
%TA.AperFunction,Conductor*%
%TO.N,GND*%
G36*
X112942121Y-100520502D02*
G01*
X112988614Y-100574158D01*
X113000000Y-100626500D01*
X113000000Y-107030000D01*
X141000000Y-107030000D01*
X141000000Y-103107165D01*
X155247866Y-103107165D01*
X155282952Y-103364970D01*
X155355758Y-103614757D01*
X155464686Y-103851039D01*
X155467246Y-103854944D01*
X155467249Y-103854949D01*
X155604775Y-104064712D01*
X155604779Y-104064717D01*
X155607341Y-104068625D01*
X155780591Y-104262735D01*
X155980629Y-104429105D01*
X156203061Y-104564080D01*
X156207375Y-104565889D01*
X156207377Y-104565890D01*
X156438686Y-104662886D01*
X156438691Y-104662888D01*
X156443001Y-104664695D01*
X156447533Y-104665846D01*
X156447536Y-104665847D01*
X156572815Y-104697663D01*
X156695177Y-104728739D01*
X156911286Y-104750500D01*
X157066044Y-104750500D01*
X157068369Y-104750327D01*
X157068375Y-104750327D01*
X157254814Y-104736472D01*
X157254818Y-104736471D01*
X157259466Y-104736126D01*
X157513232Y-104678705D01*
X157517586Y-104677012D01*
X157751370Y-104586098D01*
X157751372Y-104586097D01*
X157755723Y-104584405D01*
X157791285Y-104564080D01*
X157839038Y-104536786D01*
X157981612Y-104455299D01*
X158185936Y-104294223D01*
X158364208Y-104104714D01*
X158512511Y-103890937D01*
X158530258Y-103854949D01*
X158625521Y-103661775D01*
X158625522Y-103661772D01*
X158627586Y-103657587D01*
X158706906Y-103409792D01*
X158748728Y-103152994D01*
X158752134Y-102892835D01*
X158717048Y-102635030D01*
X158644242Y-102385243D01*
X158535314Y-102148961D01*
X158506637Y-102105221D01*
X158395225Y-101935288D01*
X158395221Y-101935283D01*
X158392659Y-101931375D01*
X158219409Y-101737265D01*
X158019371Y-101570895D01*
X157796939Y-101435920D01*
X157792623Y-101434110D01*
X157561314Y-101337114D01*
X157561309Y-101337112D01*
X157556999Y-101335305D01*
X157552467Y-101334154D01*
X157552464Y-101334153D01*
X157427185Y-101302337D01*
X157304823Y-101271261D01*
X157088714Y-101249500D01*
X156933956Y-101249500D01*
X156931631Y-101249673D01*
X156931625Y-101249673D01*
X156745186Y-101263528D01*
X156745182Y-101263529D01*
X156740534Y-101263874D01*
X156486768Y-101321295D01*
X156482416Y-101322987D01*
X156482414Y-101322988D01*
X156248630Y-101413902D01*
X156248628Y-101413903D01*
X156244277Y-101415595D01*
X156240223Y-101417912D01*
X156240221Y-101417913D01*
X156204467Y-101438348D01*
X156018388Y-101544701D01*
X155814064Y-101705777D01*
X155635792Y-101895286D01*
X155487489Y-102109063D01*
X155485423Y-102113253D01*
X155485421Y-102113256D01*
X155465720Y-102153207D01*
X155372414Y-102342413D01*
X155293094Y-102590208D01*
X155251272Y-102847006D01*
X155247866Y-103107165D01*
X141000000Y-103107165D01*
X141000000Y-100626500D01*
X141020002Y-100558379D01*
X141073658Y-100511886D01*
X141126000Y-100500500D01*
X159373500Y-100500500D01*
X159441621Y-100520502D01*
X159488114Y-100574158D01*
X159499500Y-100626500D01*
X159499500Y-129373500D01*
X159479498Y-129441621D01*
X159425842Y-129488114D01*
X159373500Y-129499500D01*
X95626500Y-129499500D01*
X95558379Y-129479498D01*
X95511886Y-129425842D01*
X95500500Y-129373500D01*
X95500500Y-127107165D01*
X96247866Y-127107165D01*
X96282952Y-127364970D01*
X96355758Y-127614757D01*
X96464686Y-127851039D01*
X96467246Y-127854944D01*
X96467249Y-127854949D01*
X96604775Y-128064712D01*
X96604779Y-128064717D01*
X96607341Y-128068625D01*
X96780591Y-128262735D01*
X96980629Y-128429105D01*
X97203061Y-128564080D01*
X97207375Y-128565889D01*
X97207377Y-128565890D01*
X97438686Y-128662886D01*
X97438691Y-128662888D01*
X97443001Y-128664695D01*
X97447533Y-128665846D01*
X97447536Y-128665847D01*
X97572815Y-128697663D01*
X97695177Y-128728739D01*
X97911286Y-128750500D01*
X98066044Y-128750500D01*
X98068369Y-128750327D01*
X98068375Y-128750327D01*
X98254814Y-128736472D01*
X98254818Y-128736471D01*
X98259466Y-128736126D01*
X98513232Y-128678705D01*
X98517586Y-128677012D01*
X98751370Y-128586098D01*
X98751372Y-128586097D01*
X98755723Y-128584405D01*
X98791285Y-128564080D01*
X98839038Y-128536786D01*
X98981612Y-128455299D01*
X99185936Y-128294223D01*
X99364208Y-128104714D01*
X99512511Y-127890937D01*
X99530258Y-127854949D01*
X99625521Y-127661775D01*
X99625522Y-127661772D01*
X99627586Y-127657587D01*
X99706906Y-127409792D01*
X99748728Y-127152994D01*
X99749328Y-127107165D01*
X155247866Y-127107165D01*
X155282952Y-127364970D01*
X155355758Y-127614757D01*
X155464686Y-127851039D01*
X155467246Y-127854944D01*
X155467249Y-127854949D01*
X155604775Y-128064712D01*
X155604779Y-128064717D01*
X155607341Y-128068625D01*
X155780591Y-128262735D01*
X155980629Y-128429105D01*
X156203061Y-128564080D01*
X156207375Y-128565889D01*
X156207377Y-128565890D01*
X156438686Y-128662886D01*
X156438691Y-128662888D01*
X156443001Y-128664695D01*
X156447533Y-128665846D01*
X156447536Y-128665847D01*
X156572815Y-128697663D01*
X156695177Y-128728739D01*
X156911286Y-128750500D01*
X157066044Y-128750500D01*
X157068369Y-128750327D01*
X157068375Y-128750327D01*
X157254814Y-128736472D01*
X157254818Y-128736471D01*
X157259466Y-128736126D01*
X157513232Y-128678705D01*
X157517586Y-128677012D01*
X157751370Y-128586098D01*
X157751372Y-128586097D01*
X157755723Y-128584405D01*
X157791285Y-128564080D01*
X157839038Y-128536786D01*
X157981612Y-128455299D01*
X158185936Y-128294223D01*
X158364208Y-128104714D01*
X158512511Y-127890937D01*
X158530258Y-127854949D01*
X158625521Y-127661775D01*
X158625522Y-127661772D01*
X158627586Y-127657587D01*
X158706906Y-127409792D01*
X158748728Y-127152994D01*
X158752134Y-126892835D01*
X158717048Y-126635030D01*
X158644242Y-126385243D01*
X158535314Y-126148961D01*
X158506637Y-126105221D01*
X158395225Y-125935288D01*
X158395221Y-125935283D01*
X158392659Y-125931375D01*
X158219409Y-125737265D01*
X158019371Y-125570895D01*
X157796939Y-125435920D01*
X157792623Y-125434110D01*
X157561314Y-125337114D01*
X157561309Y-125337112D01*
X157556999Y-125335305D01*
X157552467Y-125334154D01*
X157552464Y-125334153D01*
X157427185Y-125302337D01*
X157304823Y-125271261D01*
X157088714Y-125249500D01*
X156933956Y-125249500D01*
X156931631Y-125249673D01*
X156931625Y-125249673D01*
X156745186Y-125263528D01*
X156745182Y-125263529D01*
X156740534Y-125263874D01*
X156486768Y-125321295D01*
X156482416Y-125322987D01*
X156482414Y-125322988D01*
X156248630Y-125413902D01*
X156248628Y-125413903D01*
X156244277Y-125415595D01*
X156240223Y-125417912D01*
X156240221Y-125417913D01*
X156204467Y-125438348D01*
X156018388Y-125544701D01*
X155814064Y-125705777D01*
X155635792Y-125895286D01*
X155487489Y-126109063D01*
X155485423Y-126113253D01*
X155485421Y-126113256D01*
X155465720Y-126153207D01*
X155372414Y-126342413D01*
X155293094Y-126590208D01*
X155251272Y-126847006D01*
X155247866Y-127107165D01*
X99749328Y-127107165D01*
X99752134Y-126892835D01*
X99717048Y-126635030D01*
X99644242Y-126385243D01*
X99535314Y-126148961D01*
X99506637Y-126105221D01*
X99395225Y-125935288D01*
X99395221Y-125935283D01*
X99392659Y-125931375D01*
X99219409Y-125737265D01*
X99019371Y-125570895D01*
X98796939Y-125435920D01*
X98792623Y-125434110D01*
X98561314Y-125337114D01*
X98561309Y-125337112D01*
X98556999Y-125335305D01*
X98552467Y-125334154D01*
X98552464Y-125334153D01*
X98427185Y-125302337D01*
X98304823Y-125271261D01*
X98088714Y-125249500D01*
X97933956Y-125249500D01*
X97931631Y-125249673D01*
X97931625Y-125249673D01*
X97745186Y-125263528D01*
X97745182Y-125263529D01*
X97740534Y-125263874D01*
X97486768Y-125321295D01*
X97482416Y-125322987D01*
X97482414Y-125322988D01*
X97248630Y-125413902D01*
X97248628Y-125413903D01*
X97244277Y-125415595D01*
X97240223Y-125417912D01*
X97240221Y-125417913D01*
X97204467Y-125438348D01*
X97018388Y-125544701D01*
X96814064Y-125705777D01*
X96635792Y-125895286D01*
X96487489Y-126109063D01*
X96485423Y-126113253D01*
X96485421Y-126113256D01*
X96465720Y-126153207D01*
X96372414Y-126342413D01*
X96293094Y-126590208D01*
X96251272Y-126847006D01*
X96247866Y-127107165D01*
X95500500Y-127107165D01*
X95500500Y-121540000D01*
X96644341Y-121540000D01*
X96664937Y-121775408D01*
X96726097Y-122003663D01*
X96825965Y-122217829D01*
X96961505Y-122411401D01*
X97128599Y-122578495D01*
X97133107Y-122581652D01*
X97133110Y-122581654D01*
X97317661Y-122710878D01*
X97322170Y-122714035D01*
X97327152Y-122716358D01*
X97327157Y-122716361D01*
X97531355Y-122811580D01*
X97536337Y-122813903D01*
X97541645Y-122815325D01*
X97541647Y-122815326D01*
X97759277Y-122873639D01*
X97764592Y-122875063D01*
X98000000Y-122895659D01*
X98235408Y-122875063D01*
X98240723Y-122873639D01*
X98458353Y-122815326D01*
X98458355Y-122815325D01*
X98463663Y-122813903D01*
X98468645Y-122811580D01*
X98672843Y-122716361D01*
X98672848Y-122716358D01*
X98677830Y-122714035D01*
X98682339Y-122710878D01*
X98866890Y-122581654D01*
X98866893Y-122581652D01*
X98871401Y-122578495D01*
X99038495Y-122411401D01*
X99174035Y-122217829D01*
X99273903Y-122003663D01*
X99335063Y-121775408D01*
X99355659Y-121540000D01*
X99335063Y-121304592D01*
X99273903Y-121076337D01*
X99189651Y-120895659D01*
X99176358Y-120867152D01*
X99176356Y-120867149D01*
X99174035Y-120862171D01*
X99038495Y-120668599D01*
X98871401Y-120501505D01*
X98866893Y-120498348D01*
X98866890Y-120498346D01*
X98682339Y-120369122D01*
X98682336Y-120369120D01*
X98677830Y-120365965D01*
X98672848Y-120363642D01*
X98672843Y-120363639D01*
X98468645Y-120268420D01*
X98468644Y-120268419D01*
X98463663Y-120266097D01*
X98458355Y-120264675D01*
X98458353Y-120264674D01*
X98240723Y-120206361D01*
X98240722Y-120206361D01*
X98235408Y-120204937D01*
X98000000Y-120184341D01*
X97764592Y-120204937D01*
X97759278Y-120206361D01*
X97759277Y-120206361D01*
X97541647Y-120264674D01*
X97541645Y-120264675D01*
X97536337Y-120266097D01*
X97531357Y-120268419D01*
X97531355Y-120268420D01*
X97327152Y-120363642D01*
X97327149Y-120363644D01*
X97322171Y-120365965D01*
X97128599Y-120501505D01*
X96961505Y-120668599D01*
X96825965Y-120862171D01*
X96823644Y-120867149D01*
X96823642Y-120867152D01*
X96810349Y-120895659D01*
X96726097Y-121076337D01*
X96664937Y-121304592D01*
X96644341Y-121540000D01*
X95500500Y-121540000D01*
X95500500Y-119540000D01*
X155644341Y-119540000D01*
X155664937Y-119775408D01*
X155726097Y-120003663D01*
X155728419Y-120008643D01*
X155728420Y-120008645D01*
X155810573Y-120184820D01*
X155825965Y-120217829D01*
X155961505Y-120411401D01*
X156128599Y-120578495D01*
X156133107Y-120581652D01*
X156133110Y-120581654D01*
X156317661Y-120710878D01*
X156322170Y-120714035D01*
X156327152Y-120716358D01*
X156327157Y-120716361D01*
X156531355Y-120811580D01*
X156536337Y-120813903D01*
X156541645Y-120815325D01*
X156541647Y-120815326D01*
X156735067Y-120867152D01*
X156764592Y-120875063D01*
X157000000Y-120895659D01*
X157235408Y-120875063D01*
X157264933Y-120867152D01*
X157458353Y-120815326D01*
X157458355Y-120815325D01*
X157463663Y-120813903D01*
X157468645Y-120811580D01*
X157672843Y-120716361D01*
X157672848Y-120716358D01*
X157677830Y-120714035D01*
X157682339Y-120710878D01*
X157866890Y-120581654D01*
X157866893Y-120581652D01*
X157871401Y-120578495D01*
X158038495Y-120411401D01*
X158174035Y-120217829D01*
X158189428Y-120184820D01*
X158271580Y-120008645D01*
X158271581Y-120008643D01*
X158273903Y-120003663D01*
X158335063Y-119775408D01*
X158355659Y-119540000D01*
X158335063Y-119304592D01*
X158273903Y-119076337D01*
X158174035Y-118862171D01*
X158038495Y-118668599D01*
X157871401Y-118501505D01*
X157866893Y-118498348D01*
X157866890Y-118498346D01*
X157682339Y-118369122D01*
X157682336Y-118369120D01*
X157677830Y-118365965D01*
X157672848Y-118363642D01*
X157672843Y-118363639D01*
X157468645Y-118268420D01*
X157468644Y-118268419D01*
X157463663Y-118266097D01*
X157458355Y-118264675D01*
X157458353Y-118264674D01*
X157240723Y-118206361D01*
X157240722Y-118206361D01*
X157235408Y-118204937D01*
X157000000Y-118184341D01*
X156764592Y-118204937D01*
X156759278Y-118206361D01*
X156759277Y-118206361D01*
X156541647Y-118264674D01*
X156541645Y-118264675D01*
X156536337Y-118266097D01*
X156531357Y-118268419D01*
X156531355Y-118268420D01*
X156327152Y-118363642D01*
X156327149Y-118363644D01*
X156322171Y-118365965D01*
X156128599Y-118501505D01*
X155961505Y-118668599D01*
X155825965Y-118862171D01*
X155726097Y-119076337D01*
X155664937Y-119304592D01*
X155644341Y-119540000D01*
X95500500Y-119540000D01*
X95500500Y-116495665D01*
X145595119Y-116495665D01*
X145595416Y-116500817D01*
X145595416Y-116500821D01*
X145600864Y-116595296D01*
X145608376Y-116725580D01*
X145609513Y-116730626D01*
X145609514Y-116730632D01*
X145631226Y-116826975D01*
X145659006Y-116950242D01*
X145660948Y-116955024D01*
X145660949Y-116955028D01*
X145698427Y-117047325D01*
X145745649Y-117163618D01*
X145865979Y-117359978D01*
X146016763Y-117534048D01*
X146193953Y-117681154D01*
X146392790Y-117797345D01*
X146607934Y-117879501D01*
X146613000Y-117880532D01*
X146613001Y-117880532D01*
X146713697Y-117901018D01*
X146833607Y-117925414D01*
X146963352Y-117930172D01*
X147058585Y-117933664D01*
X147058589Y-117933664D01*
X147063749Y-117933853D01*
X147068869Y-117933197D01*
X147068871Y-117933197D01*
X147138272Y-117924307D01*
X147292178Y-117904591D01*
X147297126Y-117903106D01*
X147297133Y-117903105D01*
X147507811Y-117839898D01*
X147507810Y-117839898D01*
X147512761Y-117838413D01*
X147719574Y-117737096D01*
X147907062Y-117603363D01*
X148070190Y-117440803D01*
X148128269Y-117359978D01*
X148201559Y-117257983D01*
X148204577Y-117253783D01*
X148306615Y-117047325D01*
X148337643Y-116945200D01*
X148372059Y-116831927D01*
X148372060Y-116831921D01*
X148373563Y-116826975D01*
X148403622Y-116598649D01*
X148405300Y-116530000D01*
X148386430Y-116300478D01*
X148330326Y-116077120D01*
X148238496Y-115865924D01*
X148113405Y-115672563D01*
X148092774Y-115649889D01*
X147961890Y-115506051D01*
X147961889Y-115506050D01*
X147958412Y-115502229D01*
X147954361Y-115499030D01*
X147954357Y-115499026D01*
X147781735Y-115362697D01*
X147781730Y-115362693D01*
X147777681Y-115359496D01*
X147773165Y-115357003D01*
X147773162Y-115357001D01*
X147580589Y-115250695D01*
X147580585Y-115250693D01*
X147576065Y-115248198D01*
X147571196Y-115246474D01*
X147571192Y-115246472D01*
X147363853Y-115173049D01*
X147363849Y-115173048D01*
X147358978Y-115171323D01*
X147353885Y-115170416D01*
X147353882Y-115170415D01*
X147257707Y-115153284D01*
X147132250Y-115130937D01*
X147045802Y-115129881D01*
X146907141Y-115128186D01*
X146907139Y-115128186D01*
X146901971Y-115128123D01*
X146674325Y-115162958D01*
X146455424Y-115234506D01*
X146251149Y-115340845D01*
X146066984Y-115479119D01*
X145907877Y-115645616D01*
X145778099Y-115835863D01*
X145775923Y-115840552D01*
X145775919Y-115840558D01*
X145764145Y-115865924D01*
X145681136Y-116044752D01*
X145619592Y-116266673D01*
X145595119Y-116495665D01*
X95500500Y-116495665D01*
X95500500Y-110502623D01*
X145599500Y-110502623D01*
X145599501Y-112397376D01*
X145606149Y-112458580D01*
X145656474Y-112592824D01*
X145661854Y-112600003D01*
X145661856Y-112600006D01*
X145737072Y-112700365D01*
X145742454Y-112707546D01*
X145749635Y-112712928D01*
X145849994Y-112788144D01*
X145849997Y-112788146D01*
X145857176Y-112793526D01*
X145946561Y-112827034D01*
X145984025Y-112841079D01*
X145984027Y-112841079D01*
X145991420Y-112843851D01*
X145999270Y-112844704D01*
X145999271Y-112844704D01*
X146049217Y-112850130D01*
X146052623Y-112850500D01*
X146999861Y-112850500D01*
X147947376Y-112850499D01*
X147950770Y-112850130D01*
X147950776Y-112850130D01*
X148000722Y-112844705D01*
X148000726Y-112844704D01*
X148008580Y-112843851D01*
X148142824Y-112793526D01*
X148150003Y-112788146D01*
X148150006Y-112788144D01*
X148250365Y-112712928D01*
X148257546Y-112707546D01*
X148262928Y-112700365D01*
X148338144Y-112600006D01*
X148338146Y-112600003D01*
X148343526Y-112592824D01*
X148393851Y-112458580D01*
X148400500Y-112397377D01*
X148400499Y-110502624D01*
X148393851Y-110441420D01*
X148343526Y-110307176D01*
X148338146Y-110299997D01*
X148338144Y-110299994D01*
X148262928Y-110199635D01*
X148257546Y-110192454D01*
X148250365Y-110187072D01*
X148150006Y-110111856D01*
X148150003Y-110111854D01*
X148142824Y-110106474D01*
X148053439Y-110072966D01*
X148015975Y-110058921D01*
X148015973Y-110058921D01*
X148008580Y-110056149D01*
X148000730Y-110055296D01*
X148000729Y-110055296D01*
X147950774Y-110049869D01*
X147950773Y-110049869D01*
X147947377Y-110049500D01*
X147000139Y-110049500D01*
X146052624Y-110049501D01*
X146049230Y-110049870D01*
X146049224Y-110049870D01*
X145999278Y-110055295D01*
X145999274Y-110055296D01*
X145991420Y-110056149D01*
X145857176Y-110106474D01*
X145849997Y-110111854D01*
X145849994Y-110111856D01*
X145749635Y-110187072D01*
X145742454Y-110192454D01*
X145737072Y-110199635D01*
X145661856Y-110299994D01*
X145661854Y-110299997D01*
X145656474Y-110307176D01*
X145606149Y-110441420D01*
X145599500Y-110502623D01*
X95500500Y-110502623D01*
X95500500Y-108460000D01*
X155644341Y-108460000D01*
X155664937Y-108695408D01*
X155726097Y-108923663D01*
X155825965Y-109137829D01*
X155961505Y-109331401D01*
X156081115Y-109451011D01*
X156115141Y-109513323D01*
X156110076Y-109584138D01*
X156067529Y-109640974D01*
X156036249Y-109658088D01*
X155907176Y-109706474D01*
X155899997Y-109711854D01*
X155899994Y-109711856D01*
X155799635Y-109787072D01*
X155792454Y-109792454D01*
X155787072Y-109799635D01*
X155711856Y-109899994D01*
X155711854Y-109899997D01*
X155706474Y-109907176D01*
X155656149Y-110041420D01*
X155655296Y-110049270D01*
X155655296Y-110049271D01*
X155654549Y-110056149D01*
X155649500Y-110102623D01*
X155649501Y-111897376D01*
X155656149Y-111958580D01*
X155706474Y-112092824D01*
X155711854Y-112100003D01*
X155711856Y-112100006D01*
X155787072Y-112200365D01*
X155792454Y-112207546D01*
X155799635Y-112212928D01*
X155899994Y-112288144D01*
X155899997Y-112288146D01*
X155907176Y-112293526D01*
X155996561Y-112327034D01*
X156034025Y-112341079D01*
X156034027Y-112341079D01*
X156041420Y-112343851D01*
X156049270Y-112344704D01*
X156049271Y-112344704D01*
X156099217Y-112350130D01*
X156102623Y-112350500D01*
X156999868Y-112350500D01*
X157897376Y-112350499D01*
X157900770Y-112350130D01*
X157900776Y-112350130D01*
X157950722Y-112344705D01*
X157950726Y-112344704D01*
X157958580Y-112343851D01*
X158092824Y-112293526D01*
X158100003Y-112288146D01*
X158100006Y-112288144D01*
X158200365Y-112212928D01*
X158207546Y-112207546D01*
X158212928Y-112200365D01*
X158288144Y-112100006D01*
X158288146Y-112100003D01*
X158293526Y-112092824D01*
X158343851Y-111958580D01*
X158350500Y-111897377D01*
X158350499Y-110102624D01*
X158350130Y-110099224D01*
X158344705Y-110049278D01*
X158344704Y-110049274D01*
X158343851Y-110041420D01*
X158293526Y-109907176D01*
X158288146Y-109899997D01*
X158288144Y-109899994D01*
X158212928Y-109799635D01*
X158207546Y-109792454D01*
X158200365Y-109787072D01*
X158100006Y-109711856D01*
X158100003Y-109711854D01*
X158092824Y-109706474D01*
X157963752Y-109658088D01*
X157906987Y-109615447D01*
X157882286Y-109548886D01*
X157897493Y-109479537D01*
X157918885Y-109451011D01*
X158038495Y-109331401D01*
X158174035Y-109137829D01*
X158273903Y-108923663D01*
X158335063Y-108695408D01*
X158355659Y-108460000D01*
X158335063Y-108224592D01*
X158273903Y-107996337D01*
X158174035Y-107782171D01*
X158038495Y-107588599D01*
X157871401Y-107421505D01*
X157866893Y-107418348D01*
X157866890Y-107418346D01*
X157682339Y-107289122D01*
X157682336Y-107289120D01*
X157677830Y-107285965D01*
X157672848Y-107283642D01*
X157672843Y-107283639D01*
X157468645Y-107188420D01*
X157468644Y-107188419D01*
X157463663Y-107186097D01*
X157458355Y-107184675D01*
X157458353Y-107184674D01*
X157240723Y-107126361D01*
X157240722Y-107126361D01*
X157235408Y-107124937D01*
X157000000Y-107104341D01*
X156764592Y-107124937D01*
X156759278Y-107126361D01*
X156759277Y-107126361D01*
X156541647Y-107184674D01*
X156541645Y-107184675D01*
X156536337Y-107186097D01*
X156531357Y-107188419D01*
X156531355Y-107188420D01*
X156327152Y-107283642D01*
X156327149Y-107283644D01*
X156322171Y-107285965D01*
X156128599Y-107421505D01*
X155961505Y-107588599D01*
X155825965Y-107782171D01*
X155726097Y-107996337D01*
X155664937Y-108224592D01*
X155644341Y-108460000D01*
X95500500Y-108460000D01*
X95500500Y-103107165D01*
X96247866Y-103107165D01*
X96282952Y-103364970D01*
X96355758Y-103614757D01*
X96464686Y-103851039D01*
X96467246Y-103854944D01*
X96467249Y-103854949D01*
X96604775Y-104064712D01*
X96604779Y-104064717D01*
X96607341Y-104068625D01*
X96780591Y-104262735D01*
X96980629Y-104429105D01*
X97203061Y-104564080D01*
X97207375Y-104565889D01*
X97207377Y-104565890D01*
X97438686Y-104662886D01*
X97438691Y-104662888D01*
X97443001Y-104664695D01*
X97447533Y-104665846D01*
X97447536Y-104665847D01*
X97572815Y-104697663D01*
X97695177Y-104728739D01*
X97911286Y-104750500D01*
X98066044Y-104750500D01*
X98068369Y-104750327D01*
X98068375Y-104750327D01*
X98254814Y-104736472D01*
X98254818Y-104736471D01*
X98259466Y-104736126D01*
X98513232Y-104678705D01*
X98517586Y-104677012D01*
X98751370Y-104586098D01*
X98751372Y-104586097D01*
X98755723Y-104584405D01*
X98791285Y-104564080D01*
X98839038Y-104536786D01*
X98981612Y-104455299D01*
X99185936Y-104294223D01*
X99364208Y-104104714D01*
X99512511Y-103890937D01*
X99530258Y-103854949D01*
X99625521Y-103661775D01*
X99625522Y-103661772D01*
X99627586Y-103657587D01*
X99706906Y-103409792D01*
X99748728Y-103152994D01*
X99752134Y-102892835D01*
X99717048Y-102635030D01*
X99644242Y-102385243D01*
X99535314Y-102148961D01*
X99506637Y-102105221D01*
X99395225Y-101935288D01*
X99395221Y-101935283D01*
X99392659Y-101931375D01*
X99219409Y-101737265D01*
X99019371Y-101570895D01*
X98796939Y-101435920D01*
X98792623Y-101434110D01*
X98561314Y-101337114D01*
X98561309Y-101337112D01*
X98556999Y-101335305D01*
X98552467Y-101334154D01*
X98552464Y-101334153D01*
X98427185Y-101302337D01*
X98304823Y-101271261D01*
X98088714Y-101249500D01*
X97933956Y-101249500D01*
X97931631Y-101249673D01*
X97931625Y-101249673D01*
X97745186Y-101263528D01*
X97745182Y-101263529D01*
X97740534Y-101263874D01*
X97486768Y-101321295D01*
X97482416Y-101322987D01*
X97482414Y-101322988D01*
X97248630Y-101413902D01*
X97248628Y-101413903D01*
X97244277Y-101415595D01*
X97240223Y-101417912D01*
X97240221Y-101417913D01*
X97204467Y-101438348D01*
X97018388Y-101544701D01*
X96814064Y-101705777D01*
X96635792Y-101895286D01*
X96487489Y-102109063D01*
X96485423Y-102113253D01*
X96485421Y-102113256D01*
X96465720Y-102153207D01*
X96372414Y-102342413D01*
X96293094Y-102590208D01*
X96251272Y-102847006D01*
X96247866Y-103107165D01*
X95500500Y-103107165D01*
X95500500Y-100626500D01*
X95520502Y-100558379D01*
X95574158Y-100511886D01*
X95626500Y-100500500D01*
X112874000Y-100500500D01*
X112942121Y-100520502D01*
G37*
%TD.AperFunction*%
%TD*%
M02*
