%TF.GenerationSoftware,KiCad,Pcbnew,6.0.8-f2edbf62ab~116~ubuntu22.04.1*%
%TF.CreationDate,2022-10-16T01:51:03-07:00*%
%TF.ProjectId,bracelet-pcb,62726163-656c-4657-942d-7063622e6b69,rev?*%
%TF.SameCoordinates,Original*%
%TF.FileFunction,Legend,Top*%
%TF.FilePolarity,Positive*%
%FSLAX46Y46*%
G04 Gerber Fmt 4.6, Leading zero omitted, Abs format (unit mm)*
G04 Created by KiCad (PCBNEW 6.0.8-f2edbf62ab~116~ubuntu22.04.1) date 2022-10-16 01:51:03*
%MOMM*%
%LPD*%
G01*
G04 APERTURE LIST*
%ADD10C,0.150000*%
%ADD11C,0.120000*%
G04 APERTURE END LIST*
D10*
%TO.C,H4*%
X156238095Y-124452380D02*
X156238095Y-123452380D01*
X156238095Y-123928571D02*
X156809523Y-123928571D01*
X156809523Y-124452380D02*
X156809523Y-123452380D01*
X157714285Y-123785714D02*
X157714285Y-124452380D01*
X157476190Y-123404761D02*
X157238095Y-124119047D01*
X157857142Y-124119047D01*
%TO.C,H3*%
X153238095Y-103452380D02*
X153238095Y-102452380D01*
X153238095Y-102928571D02*
X153809523Y-102928571D01*
X153809523Y-103452380D02*
X153809523Y-102452380D01*
X154190476Y-102452380D02*
X154809523Y-102452380D01*
X154476190Y-102833333D01*
X154619047Y-102833333D01*
X154714285Y-102880952D01*
X154761904Y-102928571D01*
X154809523Y-103023809D01*
X154809523Y-103261904D01*
X154761904Y-103357142D01*
X154714285Y-103404761D01*
X154619047Y-103452380D01*
X154333333Y-103452380D01*
X154238095Y-103404761D01*
X154190476Y-103357142D01*
%TO.C,H2*%
X100238095Y-103452380D02*
X100238095Y-102452380D01*
X100238095Y-102928571D02*
X100809523Y-102928571D01*
X100809523Y-103452380D02*
X100809523Y-102452380D01*
X101238095Y-102547619D02*
X101285714Y-102500000D01*
X101380952Y-102452380D01*
X101619047Y-102452380D01*
X101714285Y-102500000D01*
X101761904Y-102547619D01*
X101809523Y-102642857D01*
X101809523Y-102738095D01*
X101761904Y-102880952D01*
X101190476Y-103452380D01*
X101809523Y-103452380D01*
%TO.C,H1*%
X100238095Y-127452380D02*
X100238095Y-126452380D01*
X100238095Y-126928571D02*
X100809523Y-126928571D01*
X100809523Y-127452380D02*
X100809523Y-126452380D01*
X101809523Y-127452380D02*
X101238095Y-127452380D01*
X101523809Y-127452380D02*
X101523809Y-126452380D01*
X101428571Y-126595238D01*
X101333333Y-126690476D01*
X101238095Y-126738095D01*
%TO.C,R7*%
X137802380Y-112166666D02*
X137326190Y-112500000D01*
X137802380Y-112738095D02*
X136802380Y-112738095D01*
X136802380Y-112357142D01*
X136850000Y-112261904D01*
X136897619Y-112214285D01*
X136992857Y-112166666D01*
X137135714Y-112166666D01*
X137230952Y-112214285D01*
X137278571Y-112261904D01*
X137326190Y-112357142D01*
X137326190Y-112738095D01*
X136802380Y-111833333D02*
X136802380Y-111166666D01*
X137802380Y-111595238D01*
%TO.C,R6*%
X143452380Y-128166666D02*
X142976190Y-128500000D01*
X143452380Y-128738095D02*
X142452380Y-128738095D01*
X142452380Y-128357142D01*
X142500000Y-128261904D01*
X142547619Y-128214285D01*
X142642857Y-128166666D01*
X142785714Y-128166666D01*
X142880952Y-128214285D01*
X142928571Y-128261904D01*
X142976190Y-128357142D01*
X142976190Y-128738095D01*
X142452380Y-127309523D02*
X142452380Y-127500000D01*
X142500000Y-127595238D01*
X142547619Y-127642857D01*
X142690476Y-127738095D01*
X142880952Y-127785714D01*
X143261904Y-127785714D01*
X143357142Y-127738095D01*
X143404761Y-127690476D01*
X143452380Y-127595238D01*
X143452380Y-127404761D01*
X143404761Y-127309523D01*
X143357142Y-127261904D01*
X143261904Y-127214285D01*
X143023809Y-127214285D01*
X142928571Y-127261904D01*
X142880952Y-127309523D01*
X142833333Y-127404761D01*
X142833333Y-127595238D01*
X142880952Y-127690476D01*
X142928571Y-127738095D01*
X143023809Y-127785714D01*
%TO.C,R5*%
X140452380Y-127916666D02*
X139976190Y-128250000D01*
X140452380Y-128488095D02*
X139452380Y-128488095D01*
X139452380Y-128107142D01*
X139500000Y-128011904D01*
X139547619Y-127964285D01*
X139642857Y-127916666D01*
X139785714Y-127916666D01*
X139880952Y-127964285D01*
X139928571Y-128011904D01*
X139976190Y-128107142D01*
X139976190Y-128488095D01*
X139452380Y-127011904D02*
X139452380Y-127488095D01*
X139928571Y-127535714D01*
X139880952Y-127488095D01*
X139833333Y-127392857D01*
X139833333Y-127154761D01*
X139880952Y-127059523D01*
X139928571Y-127011904D01*
X140023809Y-126964285D01*
X140261904Y-126964285D01*
X140357142Y-127011904D01*
X140404761Y-127059523D01*
X140452380Y-127154761D01*
X140452380Y-127392857D01*
X140404761Y-127488095D01*
X140357142Y-127535714D01*
%TO.C,D2*%
X146452380Y-129238095D02*
X145452380Y-129238095D01*
X145452380Y-129000000D01*
X145500000Y-128857142D01*
X145595238Y-128761904D01*
X145690476Y-128714285D01*
X145880952Y-128666666D01*
X146023809Y-128666666D01*
X146214285Y-128714285D01*
X146309523Y-128761904D01*
X146404761Y-128857142D01*
X146452380Y-129000000D01*
X146452380Y-129238095D01*
X145547619Y-128285714D02*
X145500000Y-128238095D01*
X145452380Y-128142857D01*
X145452380Y-127904761D01*
X145500000Y-127809523D01*
X145547619Y-127761904D01*
X145642857Y-127714285D01*
X145738095Y-127714285D01*
X145880952Y-127761904D01*
X146452380Y-128333333D01*
X146452380Y-127714285D01*
%TO.C,J3*%
X156416666Y-105452380D02*
X156416666Y-106166666D01*
X156369047Y-106309523D01*
X156273809Y-106404761D01*
X156130952Y-106452380D01*
X156035714Y-106452380D01*
X156797619Y-105452380D02*
X157416666Y-105452380D01*
X157083333Y-105833333D01*
X157226190Y-105833333D01*
X157321428Y-105880952D01*
X157369047Y-105928571D01*
X157416666Y-106023809D01*
X157416666Y-106261904D01*
X157369047Y-106357142D01*
X157321428Y-106404761D01*
X157226190Y-106452380D01*
X156940476Y-106452380D01*
X156845238Y-106404761D01*
X156797619Y-106357142D01*
%TO.C,J2*%
X156666666Y-114122380D02*
X156666666Y-114836666D01*
X156619047Y-114979523D01*
X156523809Y-115074761D01*
X156380952Y-115122380D01*
X156285714Y-115122380D01*
X157095238Y-114217619D02*
X157142857Y-114170000D01*
X157238095Y-114122380D01*
X157476190Y-114122380D01*
X157571428Y-114170000D01*
X157619047Y-114217619D01*
X157666666Y-114312857D01*
X157666666Y-114408095D01*
X157619047Y-114550952D01*
X157047619Y-115122380D01*
X157666666Y-115122380D01*
%TO.C,J1*%
X97666666Y-123452380D02*
X97666666Y-124166666D01*
X97619047Y-124309523D01*
X97523809Y-124404761D01*
X97380952Y-124452380D01*
X97285714Y-124452380D01*
X98666666Y-124452380D02*
X98095238Y-124452380D01*
X98380952Y-124452380D02*
X98380952Y-123452380D01*
X98285714Y-123595238D01*
X98190476Y-123690476D01*
X98095238Y-123738095D01*
%TO.C,U2*%
X115842380Y-126191904D02*
X116651904Y-126191904D01*
X116747142Y-126144285D01*
X116794761Y-126096666D01*
X116842380Y-126001428D01*
X116842380Y-125810952D01*
X116794761Y-125715714D01*
X116747142Y-125668095D01*
X116651904Y-125620476D01*
X115842380Y-125620476D01*
X115937619Y-125191904D02*
X115890000Y-125144285D01*
X115842380Y-125049047D01*
X115842380Y-124810952D01*
X115890000Y-124715714D01*
X115937619Y-124668095D01*
X116032857Y-124620476D01*
X116128095Y-124620476D01*
X116270952Y-124668095D01*
X116842380Y-125239523D01*
X116842380Y-124620476D01*
%TO.C,U1*%
X108238095Y-114452380D02*
X108238095Y-115261904D01*
X108285714Y-115357142D01*
X108333333Y-115404761D01*
X108428571Y-115452380D01*
X108619047Y-115452380D01*
X108714285Y-115404761D01*
X108761904Y-115357142D01*
X108809523Y-115261904D01*
X108809523Y-114452380D01*
X109809523Y-115452380D02*
X109238095Y-115452380D01*
X109523809Y-115452380D02*
X109523809Y-114452380D01*
X109428571Y-114595238D01*
X109333333Y-114690476D01*
X109238095Y-114738095D01*
%TO.C,R4*%
X141802380Y-112166666D02*
X141326190Y-112500000D01*
X141802380Y-112738095D02*
X140802380Y-112738095D01*
X140802380Y-112357142D01*
X140850000Y-112261904D01*
X140897619Y-112214285D01*
X140992857Y-112166666D01*
X141135714Y-112166666D01*
X141230952Y-112214285D01*
X141278571Y-112261904D01*
X141326190Y-112357142D01*
X141326190Y-112738095D01*
X141135714Y-111309523D02*
X141802380Y-111309523D01*
X140754761Y-111547619D02*
X141469047Y-111785714D01*
X141469047Y-111166666D01*
%TO.C,R3*%
X141802380Y-116166666D02*
X141326190Y-116500000D01*
X141802380Y-116738095D02*
X140802380Y-116738095D01*
X140802380Y-116357142D01*
X140850000Y-116261904D01*
X140897619Y-116214285D01*
X140992857Y-116166666D01*
X141135714Y-116166666D01*
X141230952Y-116214285D01*
X141278571Y-116261904D01*
X141326190Y-116357142D01*
X141326190Y-116738095D01*
X140802380Y-115833333D02*
X140802380Y-115214285D01*
X141183333Y-115547619D01*
X141183333Y-115404761D01*
X141230952Y-115309523D01*
X141278571Y-115261904D01*
X141373809Y-115214285D01*
X141611904Y-115214285D01*
X141707142Y-115261904D01*
X141754761Y-115309523D01*
X141802380Y-115404761D01*
X141802380Y-115690476D01*
X141754761Y-115785714D01*
X141707142Y-115833333D01*
%TO.C,R2*%
X105749453Y-118452380D02*
X105416120Y-117976190D01*
X105178024Y-118452380D02*
X105178024Y-117452380D01*
X105558977Y-117452380D01*
X105654215Y-117500000D01*
X105701834Y-117547619D01*
X105749453Y-117642857D01*
X105749453Y-117785714D01*
X105701834Y-117880952D01*
X105654215Y-117928571D01*
X105558977Y-117976190D01*
X105178024Y-117976190D01*
X106130405Y-117547619D02*
X106178024Y-117500000D01*
X106273262Y-117452380D01*
X106511358Y-117452380D01*
X106606596Y-117500000D01*
X106654215Y-117547619D01*
X106701834Y-117642857D01*
X106701834Y-117738095D01*
X106654215Y-117880952D01*
X106082786Y-118452380D01*
X106701834Y-118452380D01*
%TO.C,R1*%
X102083333Y-116202380D02*
X101750000Y-115726190D01*
X101511904Y-116202380D02*
X101511904Y-115202380D01*
X101892857Y-115202380D01*
X101988095Y-115250000D01*
X102035714Y-115297619D01*
X102083333Y-115392857D01*
X102083333Y-115535714D01*
X102035714Y-115630952D01*
X101988095Y-115678571D01*
X101892857Y-115726190D01*
X101511904Y-115726190D01*
X103035714Y-116202380D02*
X102464285Y-116202380D01*
X102750000Y-116202380D02*
X102750000Y-115202380D01*
X102654761Y-115345238D01*
X102559523Y-115440476D01*
X102464285Y-115488095D01*
%TO.C,L1*%
X107749453Y-107377380D02*
X107273262Y-107377380D01*
X107273262Y-106377380D01*
X108606596Y-107377380D02*
X108035167Y-107377380D01*
X108320881Y-107377380D02*
X108320881Y-106377380D01*
X108225643Y-106520238D01*
X108130405Y-106615476D01*
X108035167Y-106663095D01*
%TO.C,D1*%
X150412380Y-114728095D02*
X149412380Y-114728095D01*
X149412380Y-114490000D01*
X149460000Y-114347142D01*
X149555238Y-114251904D01*
X149650476Y-114204285D01*
X149840952Y-114156666D01*
X149983809Y-114156666D01*
X150174285Y-114204285D01*
X150269523Y-114251904D01*
X150364761Y-114347142D01*
X150412380Y-114490000D01*
X150412380Y-114728095D01*
X150412380Y-113204285D02*
X150412380Y-113775714D01*
X150412380Y-113490000D02*
X149412380Y-113490000D01*
X149555238Y-113585238D01*
X149650476Y-113680476D01*
X149698095Y-113775714D01*
%TO.C,C4*%
X102357142Y-111141666D02*
X102404761Y-111189285D01*
X102452380Y-111332142D01*
X102452380Y-111427380D01*
X102404761Y-111570238D01*
X102309523Y-111665476D01*
X102214285Y-111713095D01*
X102023809Y-111760714D01*
X101880952Y-111760714D01*
X101690476Y-111713095D01*
X101595238Y-111665476D01*
X101500000Y-111570238D01*
X101452380Y-111427380D01*
X101452380Y-111332142D01*
X101500000Y-111189285D01*
X101547619Y-111141666D01*
X101785714Y-110284523D02*
X102452380Y-110284523D01*
X101404761Y-110522619D02*
X102119047Y-110760714D01*
X102119047Y-110141666D01*
%TO.C,C3*%
X112357142Y-106916666D02*
X112404761Y-106964285D01*
X112452380Y-107107142D01*
X112452380Y-107202380D01*
X112404761Y-107345238D01*
X112309523Y-107440476D01*
X112214285Y-107488095D01*
X112023809Y-107535714D01*
X111880952Y-107535714D01*
X111690476Y-107488095D01*
X111595238Y-107440476D01*
X111500000Y-107345238D01*
X111452380Y-107202380D01*
X111452380Y-107107142D01*
X111500000Y-106964285D01*
X111547619Y-106916666D01*
X111452380Y-106583333D02*
X111452380Y-105964285D01*
X111833333Y-106297619D01*
X111833333Y-106154761D01*
X111880952Y-106059523D01*
X111928571Y-106011904D01*
X112023809Y-105964285D01*
X112261904Y-105964285D01*
X112357142Y-106011904D01*
X112404761Y-106059523D01*
X112452380Y-106154761D01*
X112452380Y-106440476D01*
X112404761Y-106535714D01*
X112357142Y-106583333D01*
%TO.C,C2*%
X114357142Y-106916666D02*
X114404761Y-106964285D01*
X114452380Y-107107142D01*
X114452380Y-107202380D01*
X114404761Y-107345238D01*
X114309523Y-107440476D01*
X114214285Y-107488095D01*
X114023809Y-107535714D01*
X113880952Y-107535714D01*
X113690476Y-107488095D01*
X113595238Y-107440476D01*
X113500000Y-107345238D01*
X113452380Y-107202380D01*
X113452380Y-107107142D01*
X113500000Y-106964285D01*
X113547619Y-106916666D01*
X113547619Y-106535714D02*
X113500000Y-106488095D01*
X113452380Y-106392857D01*
X113452380Y-106154761D01*
X113500000Y-106059523D01*
X113547619Y-106011904D01*
X113642857Y-105964285D01*
X113738095Y-105964285D01*
X113880952Y-106011904D01*
X114452380Y-106583333D01*
X114452380Y-105964285D01*
%TO.C,C1*%
X112357142Y-116916666D02*
X112404761Y-116964285D01*
X112452380Y-117107142D01*
X112452380Y-117202380D01*
X112404761Y-117345238D01*
X112309523Y-117440476D01*
X112214285Y-117488095D01*
X112023809Y-117535714D01*
X111880952Y-117535714D01*
X111690476Y-117488095D01*
X111595238Y-117440476D01*
X111500000Y-117345238D01*
X111452380Y-117202380D01*
X111452380Y-117107142D01*
X111500000Y-116964285D01*
X111547619Y-116916666D01*
X112452380Y-115964285D02*
X112452380Y-116535714D01*
X112452380Y-116250000D02*
X111452380Y-116250000D01*
X111595238Y-116345238D01*
X111690476Y-116440476D01*
X111738095Y-116535714D01*
D11*
%TO.C,R7*%
X138265000Y-112227064D02*
X138265000Y-111772936D01*
X139735000Y-112227064D02*
X139735000Y-111772936D01*
%TO.C,R6*%
X142265000Y-125227064D02*
X142265000Y-124772936D01*
X143735000Y-125227064D02*
X143735000Y-124772936D01*
%TO.C,R5*%
X140735000Y-124772936D02*
X140735000Y-125227064D01*
X139265000Y-124772936D02*
X139265000Y-125227064D01*
%TO.C,D2*%
X145000000Y-127250000D02*
X145000000Y-123350000D01*
X145000000Y-127250000D02*
X147000000Y-127250000D01*
X147000000Y-127250000D02*
X147000000Y-123350000D01*
%TO.C,J3*%
X155670000Y-109730000D02*
X155670000Y-107130000D01*
X158330000Y-112330000D02*
X157000000Y-112330000D01*
X158330000Y-109730000D02*
X155670000Y-109730000D01*
X158330000Y-109730000D02*
X158330000Y-107130000D01*
X158330000Y-107130000D02*
X155670000Y-107130000D01*
X158330000Y-111000000D02*
X158330000Y-112330000D01*
%TO.C,J2*%
X158330000Y-118270000D02*
X158330000Y-120870000D01*
X155670000Y-115670000D02*
X157000000Y-115670000D01*
X155670000Y-118270000D02*
X158330000Y-118270000D01*
X155670000Y-118270000D02*
X155670000Y-120870000D01*
X155670000Y-120870000D02*
X158330000Y-120870000D01*
X155670000Y-117000000D02*
X155670000Y-115670000D01*
%TO.C,J1*%
X96670000Y-119000000D02*
X96670000Y-117670000D01*
X96670000Y-122870000D02*
X99330000Y-122870000D01*
X96670000Y-120270000D02*
X96670000Y-122870000D01*
X96670000Y-120270000D02*
X99330000Y-120270000D01*
X96670000Y-117670000D02*
X98000000Y-117670000D01*
X99330000Y-120270000D02*
X99330000Y-122870000D01*
%TO.C,U2*%
X136120000Y-101135000D02*
X136120000Y-107555000D01*
X117880000Y-101135000D02*
X136120000Y-101135000D01*
X117880000Y-101135000D02*
X117880000Y-107555000D01*
X136120000Y-126100000D02*
X136120000Y-126880000D01*
X136120000Y-126880000D02*
X135120000Y-126880000D01*
X117880000Y-107555000D02*
X117500000Y-107555000D01*
X117880000Y-126100000D02*
X117880000Y-126880000D01*
X117880000Y-126880000D02*
X118880000Y-126880000D01*
%TO.C,U1*%
X108816120Y-113875000D02*
X107266120Y-113875000D01*
X107266120Y-112075000D02*
X108566120Y-112075000D01*
%TO.C,R4*%
X142265000Y-112227064D02*
X142265000Y-111772936D01*
X143735000Y-112227064D02*
X143735000Y-111772936D01*
%TO.C,R3*%
X142265000Y-116227064D02*
X142265000Y-115772936D01*
X143735000Y-116227064D02*
X143735000Y-115772936D01*
%TO.C,R2*%
X105654868Y-116710000D02*
X106177372Y-116710000D01*
X105654868Y-115240000D02*
X106177372Y-115240000D01*
%TO.C,R1*%
X103617368Y-114710000D02*
X104139872Y-114710000D01*
X103617368Y-113240000D02*
X104139872Y-113240000D01*
%TO.C,L1*%
X107654868Y-107865000D02*
X108177372Y-107865000D01*
X107654868Y-110085000D02*
X108177372Y-110085000D01*
%TO.C,D1*%
X148236000Y-112430000D02*
X148080000Y-112430000D01*
X145920000Y-112430000D02*
X145764000Y-112430000D01*
X148079837Y-115031130D02*
G75*
G03*
X148080000Y-112949039I-1079837J1041130D01*
G01*
X148078608Y-115662335D02*
G75*
G03*
X148235516Y-112430000I-1078608J1672335D01*
G01*
X145920000Y-112949039D02*
G75*
G03*
X145920163Y-115031130I1080000J-1040961D01*
G01*
X145764484Y-112430000D02*
G75*
G03*
X145921392Y-115662335I1235516J-1560000D01*
G01*
%TO.C,C4*%
X103181120Y-110713748D02*
X103181120Y-111236252D01*
X104651120Y-110713748D02*
X104651120Y-111236252D01*
%TO.C,C3*%
X111181120Y-109713748D02*
X111181120Y-110236252D01*
X112651120Y-109713748D02*
X112651120Y-110236252D01*
%TO.C,C2*%
X113181120Y-109713748D02*
X113181120Y-110236252D01*
X114651120Y-109713748D02*
X114651120Y-110236252D01*
%TO.C,C1*%
X112651120Y-114236252D02*
X112651120Y-113713748D01*
X111181120Y-114236252D02*
X111181120Y-113713748D01*
%TD*%
M02*
