%TF.GenerationSoftware,KiCad,Pcbnew,6.0.8-f2edbf62ab~116~ubuntu22.04.1*%
%TF.CreationDate,2022-10-15T18:03:24-07:00*%
%TF.ProjectId,syringe,73797269-6e67-4652-9e6b-696361645f70,rev?*%
%TF.SameCoordinates,Original*%
%TF.FileFunction,Legend,Bot*%
%TF.FilePolarity,Positive*%
%FSLAX46Y46*%
G04 Gerber Fmt 4.6, Leading zero omitted, Abs format (unit mm)*
G04 Created by KiCad (PCBNEW 6.0.8-f2edbf62ab~116~ubuntu22.04.1) date 2022-10-15 18:03:24*
%MOMM*%
%LPD*%
G01*
G04 APERTURE LIST*
%ADD10C,0.150000*%
%ADD11C,0.120000*%
G04 APERTURE END LIST*
D10*
X115000000Y-111000000D02*
X131000000Y-111000000D01*
X131000000Y-111000000D02*
X131000000Y-103000000D01*
X131000000Y-103000000D02*
X115000000Y-103000000D01*
X115000000Y-103000000D02*
X115000000Y-111000000D01*
%TO.C,C1*%
X114357142Y-101833333D02*
X114404761Y-101785714D01*
X114452380Y-101642857D01*
X114452380Y-101547619D01*
X114404761Y-101404761D01*
X114309523Y-101309523D01*
X114214285Y-101261904D01*
X114023809Y-101214285D01*
X113880952Y-101214285D01*
X113690476Y-101261904D01*
X113595238Y-101309523D01*
X113500000Y-101404761D01*
X113452380Y-101547619D01*
X113452380Y-101642857D01*
X113500000Y-101785714D01*
X113547619Y-101833333D01*
X114452380Y-102785714D02*
X114452380Y-102214285D01*
X114452380Y-102500000D02*
X113452380Y-102500000D01*
X113595238Y-102404761D01*
X113690476Y-102309523D01*
X113738095Y-102214285D01*
%TO.C,BT2*%
X140785714Y-98928571D02*
X140642857Y-98976190D01*
X140595238Y-99023809D01*
X140547619Y-99119047D01*
X140547619Y-99261904D01*
X140595238Y-99357142D01*
X140642857Y-99404761D01*
X140738095Y-99452380D01*
X141119047Y-99452380D01*
X141119047Y-98452380D01*
X140785714Y-98452380D01*
X140690476Y-98500000D01*
X140642857Y-98547619D01*
X140595238Y-98642857D01*
X140595238Y-98738095D01*
X140642857Y-98833333D01*
X140690476Y-98880952D01*
X140785714Y-98928571D01*
X141119047Y-98928571D01*
X140261904Y-98452380D02*
X139690476Y-98452380D01*
X139976190Y-99452380D02*
X139976190Y-98452380D01*
X139404761Y-98547619D02*
X139357142Y-98500000D01*
X139261904Y-98452380D01*
X139023809Y-98452380D01*
X138928571Y-98500000D01*
X138880952Y-98547619D01*
X138833333Y-98642857D01*
X138833333Y-98738095D01*
X138880952Y-98880952D01*
X139452380Y-99452380D01*
X138833333Y-99452380D01*
%TO.C,BT1*%
X158785714Y-98928571D02*
X158642857Y-98976190D01*
X158595238Y-99023809D01*
X158547619Y-99119047D01*
X158547619Y-99261904D01*
X158595238Y-99357142D01*
X158642857Y-99404761D01*
X158738095Y-99452380D01*
X159119047Y-99452380D01*
X159119047Y-98452380D01*
X158785714Y-98452380D01*
X158690476Y-98500000D01*
X158642857Y-98547619D01*
X158595238Y-98642857D01*
X158595238Y-98738095D01*
X158642857Y-98833333D01*
X158690476Y-98880952D01*
X158785714Y-98928571D01*
X159119047Y-98928571D01*
X158261904Y-98452380D02*
X157690476Y-98452380D01*
X157976190Y-99452380D02*
X157976190Y-98452380D01*
X156833333Y-99452380D02*
X157404761Y-99452380D01*
X157119047Y-99452380D02*
X157119047Y-98452380D01*
X157214285Y-98595238D01*
X157309523Y-98690476D01*
X157404761Y-98738095D01*
D11*
%TO.C,C1*%
X108960000Y-105861651D02*
X106053000Y-105861651D01*
X111346000Y-103021651D02*
X108654000Y-103021651D01*
X113055000Y-104181651D02*
X111040000Y-104181651D01*
X111813000Y-103221651D02*
X108187000Y-103221651D01*
X114024000Y-106222651D02*
X105976000Y-106222651D01*
X108960000Y-104581651D02*
X106635000Y-104581651D01*
X113914000Y-105741651D02*
X111040000Y-105741651D01*
X113019000Y-104141651D02*
X111040000Y-104141651D01*
X112651000Y-103781651D02*
X107349000Y-103781651D01*
X114017000Y-106181651D02*
X105983000Y-106181651D01*
X113877000Y-105621651D02*
X111040000Y-105621651D01*
X108960000Y-104821651D02*
X106483000Y-104821651D01*
X113994000Y-106061651D02*
X106006000Y-106061651D01*
X113985000Y-106021651D02*
X111040000Y-106021651D01*
X113309000Y-104501651D02*
X111040000Y-104501651D01*
X108960000Y-104341651D02*
X106811000Y-104341651D01*
X108960000Y-104181651D02*
X106945000Y-104181651D01*
X113936000Y-105821651D02*
X111040000Y-105821651D01*
X108960000Y-104101651D02*
X107017000Y-104101651D01*
X108960000Y-104781651D02*
X106507000Y-104781651D01*
X108960000Y-105181651D02*
X106296000Y-105181651D01*
X113821000Y-105461651D02*
X111040000Y-105461651D01*
X112826000Y-103941651D02*
X107174000Y-103941651D01*
X108960000Y-105741651D02*
X106086000Y-105741651D01*
X114080000Y-106862651D02*
X105920000Y-106862651D01*
X112166000Y-103421651D02*
X107834000Y-103421651D01*
X113220000Y-104381651D02*
X111040000Y-104381651D01*
X113444000Y-104701651D02*
X111040000Y-104701651D01*
X108960000Y-105701651D02*
X106098000Y-105701651D01*
X113740000Y-105261651D02*
X111040000Y-105261651D01*
X108960000Y-105501651D02*
X106165000Y-105501651D01*
X108960000Y-105341651D02*
X106226000Y-105341651D01*
X113493000Y-104781651D02*
X111040000Y-104781651D01*
X114002000Y-106101651D02*
X105998000Y-106101651D01*
X114071000Y-106622651D02*
X105929000Y-106622651D01*
X113250000Y-104421651D02*
X111040000Y-104421651D01*
X110768000Y-102861651D02*
X109232000Y-102861651D01*
X111645000Y-103141651D02*
X108355000Y-103141651D01*
X114037000Y-106302651D02*
X105963000Y-106302651D01*
X108960000Y-104861651D02*
X106460000Y-104861651D01*
X108960000Y-104061651D02*
X107055000Y-104061651D01*
X108960000Y-105941651D02*
X106033000Y-105941651D01*
X112556000Y-103701651D02*
X107444000Y-103701651D01*
X114010000Y-106141651D02*
X105990000Y-106141651D01*
X113805000Y-105421651D02*
X111040000Y-105421651D01*
X112034000Y-103341651D02*
X107966000Y-103341651D01*
X113686000Y-105141651D02*
X111040000Y-105141651D01*
X108960000Y-105261651D02*
X106260000Y-105261651D01*
X108960000Y-105061651D02*
X106353000Y-105061651D01*
X110533000Y-102821651D02*
X109467000Y-102821651D01*
X113156000Y-104301651D02*
X111040000Y-104301651D01*
X113392000Y-104621651D02*
X111040000Y-104621651D01*
X113627000Y-105021651D02*
X111040000Y-105021651D01*
X114057000Y-106462651D02*
X105943000Y-106462651D01*
X112102000Y-103381651D02*
X107898000Y-103381651D01*
X113338000Y-104541651D02*
X111040000Y-104541651D01*
X112715000Y-110912349D02*
X111915000Y-110912349D01*
X113967000Y-105941651D02*
X111040000Y-105941651D01*
X108960000Y-105981651D02*
X106024000Y-105981651D01*
X113584000Y-104941651D02*
X111040000Y-104941651D01*
X113889000Y-105661651D02*
X111040000Y-105661651D01*
X112454000Y-103621651D02*
X107546000Y-103621651D01*
X114074000Y-106662651D02*
X105926000Y-106662651D01*
X108960000Y-104221651D02*
X106910000Y-104221651D01*
X108960000Y-104701651D02*
X106556000Y-104701651D01*
X113757000Y-105301651D02*
X111040000Y-105301651D01*
X113365000Y-104581651D02*
X111040000Y-104581651D01*
X113774000Y-105341651D02*
X111040000Y-105341651D01*
X112400000Y-103581651D02*
X107600000Y-103581651D01*
X108960000Y-104941651D02*
X106416000Y-104941651D01*
X113850000Y-105541651D02*
X111040000Y-105541651D01*
X113957000Y-105901651D02*
X111040000Y-105901651D01*
X113517000Y-104821651D02*
X111040000Y-104821651D01*
X112315000Y-111312349D02*
X112315000Y-110512349D01*
X108960000Y-105381651D02*
X106210000Y-105381651D01*
X108960000Y-104621651D02*
X106608000Y-104621651D01*
X113469000Y-104741651D02*
X111040000Y-104741651D01*
X108960000Y-104541651D02*
X106662000Y-104541651D01*
X114068000Y-106582651D02*
X105932000Y-106582651D01*
X112784000Y-103901651D02*
X107216000Y-103901651D01*
X111552000Y-103101651D02*
X108448000Y-103101651D01*
X112867000Y-103981651D02*
X111040000Y-103981651D01*
X108960000Y-104981651D02*
X106394000Y-104981651D01*
X112741000Y-103861651D02*
X107259000Y-103861651D01*
X114065000Y-106542651D02*
X105935000Y-106542651D01*
X113902000Y-105701651D02*
X111040000Y-105701651D01*
X111890000Y-103261651D02*
X108110000Y-103261651D01*
X112287000Y-103501651D02*
X107713000Y-103501651D01*
X108960000Y-104501651D02*
X106691000Y-104501651D01*
X112228000Y-103461651D02*
X107772000Y-103461651D01*
X110948000Y-102901651D02*
X109052000Y-102901651D01*
X114042000Y-106342651D02*
X105958000Y-106342651D01*
X113189000Y-104341651D02*
X111040000Y-104341651D01*
X113090000Y-104221651D02*
X111040000Y-104221651D01*
X114080000Y-106822651D02*
X105920000Y-106822651D01*
X111098000Y-102941651D02*
X108902000Y-102941651D01*
X113790000Y-105381651D02*
X111040000Y-105381651D01*
X113418000Y-104661651D02*
X111040000Y-104661651D01*
X112983000Y-104101651D02*
X111040000Y-104101651D01*
X113540000Y-104861651D02*
X111040000Y-104861651D01*
X112697000Y-103821651D02*
X107303000Y-103821651D01*
X112945000Y-104061651D02*
X111040000Y-104061651D01*
X113976000Y-105981651D02*
X111040000Y-105981651D01*
X108960000Y-104261651D02*
X106876000Y-104261651D01*
X111964000Y-103301651D02*
X108036000Y-103301651D01*
X108960000Y-105901651D02*
X106043000Y-105901651D01*
X113704000Y-105181651D02*
X111040000Y-105181651D01*
X114076000Y-106702651D02*
X105924000Y-106702651D01*
X108960000Y-105821651D02*
X106064000Y-105821651D01*
X108960000Y-105661651D02*
X106111000Y-105661651D01*
X111453000Y-103061651D02*
X108547000Y-103061651D01*
X108960000Y-105301651D02*
X106243000Y-105301651D01*
X108960000Y-104141651D02*
X106981000Y-104141651D01*
X114061000Y-106502651D02*
X105939000Y-106502651D01*
X108960000Y-106021651D02*
X106015000Y-106021651D01*
X113124000Y-104261651D02*
X111040000Y-104261651D01*
X114052000Y-106422651D02*
X105948000Y-106422651D01*
X111731000Y-103181651D02*
X108269000Y-103181651D01*
X108960000Y-104461651D02*
X106720000Y-104461651D01*
X113722000Y-105221651D02*
X111040000Y-105221651D01*
X113835000Y-105501651D02*
X111040000Y-105501651D01*
X108960000Y-104741651D02*
X106531000Y-104741651D01*
X112505000Y-103661651D02*
X107495000Y-103661651D01*
X112345000Y-103541651D02*
X107655000Y-103541651D01*
X114079000Y-106782651D02*
X105921000Y-106782651D01*
X113947000Y-105861651D02*
X111040000Y-105861651D01*
X108960000Y-105541651D02*
X106150000Y-105541651D01*
X113280000Y-104461651D02*
X111040000Y-104461651D01*
X108960000Y-104661651D02*
X106582000Y-104661651D01*
X113606000Y-104981651D02*
X111040000Y-104981651D01*
X108960000Y-105621651D02*
X106123000Y-105621651D01*
X108960000Y-105581651D02*
X106137000Y-105581651D01*
X108960000Y-105221651D02*
X106278000Y-105221651D01*
X113562000Y-104901651D02*
X111040000Y-104901651D01*
X108960000Y-105421651D02*
X106195000Y-105421651D01*
X114030000Y-106262651D02*
X105970000Y-106262651D01*
X108960000Y-104421651D02*
X106750000Y-104421651D01*
X108960000Y-105781651D02*
X106075000Y-105781651D01*
X114080000Y-106902651D02*
X105920000Y-106902651D01*
X108960000Y-104021651D02*
X107093000Y-104021651D01*
X108960000Y-105021651D02*
X106373000Y-105021651D01*
X108960000Y-103981651D02*
X107133000Y-103981651D01*
X112604000Y-103741651D02*
X107396000Y-103741651D01*
X114048000Y-106382651D02*
X105952000Y-106382651D01*
X108960000Y-105141651D02*
X106314000Y-105141651D01*
X113666000Y-105101651D02*
X111040000Y-105101651D01*
X113647000Y-105061651D02*
X111040000Y-105061651D01*
X108960000Y-105461651D02*
X106179000Y-105461651D01*
X108960000Y-104301651D02*
X106844000Y-104301651D01*
X113925000Y-105781651D02*
X111040000Y-105781651D01*
X112907000Y-104021651D02*
X111040000Y-104021651D01*
X114077000Y-106742651D02*
X105923000Y-106742651D01*
X111229000Y-102981651D02*
X108771000Y-102981651D01*
X108960000Y-104381651D02*
X106780000Y-104381651D01*
X108960000Y-105101651D02*
X106334000Y-105101651D01*
X113863000Y-105581651D02*
X111040000Y-105581651D01*
X108960000Y-104901651D02*
X106438000Y-104901651D01*
X114120000Y-106902651D02*
G75*
G03*
X114120000Y-106902651I-4120000J0D01*
G01*
%TO.C,BT2*%
X146750000Y-108800000D02*
X146750000Y-111100000D01*
X135850000Y-100150000D02*
X135850000Y-100950000D01*
X146750000Y-103550000D02*
X144150000Y-100950000D01*
X146750000Y-105200000D02*
X146750000Y-103550000D01*
X133250000Y-108800000D02*
X133250000Y-111100000D01*
X144150000Y-100950000D02*
X144150000Y-100150000D01*
X144150000Y-100150000D02*
X135850000Y-100150000D01*
X135850000Y-100950000D02*
X133250000Y-103550000D01*
X133250000Y-103550000D02*
X133250000Y-105200000D01*
X144500000Y-112200000D02*
G75*
G03*
X145414615Y-112584160I790000J600001D01*
G01*
X133250000Y-111050000D02*
G75*
G03*
X134700000Y-112600000I1500000J-50000D01*
G01*
X134585385Y-112584160D02*
G75*
G03*
X135500000Y-112200000I124615J984160D01*
G01*
X145300000Y-112600000D02*
G75*
G03*
X146750000Y-111050000I-49999J1499999D01*
G01*
%TO.C,BT1*%
X164750000Y-108800000D02*
X164750000Y-111100000D01*
X153850000Y-100150000D02*
X153850000Y-100950000D01*
X164750000Y-103550000D02*
X162150000Y-100950000D01*
X164750000Y-105200000D02*
X164750000Y-103550000D01*
X151250000Y-108800000D02*
X151250000Y-111100000D01*
X162150000Y-100950000D02*
X162150000Y-100150000D01*
X162150000Y-100150000D02*
X153850000Y-100150000D01*
X153850000Y-100950000D02*
X151250000Y-103550000D01*
X151250000Y-103550000D02*
X151250000Y-105200000D01*
X162500000Y-112200000D02*
G75*
G03*
X163414615Y-112584160I790000J600001D01*
G01*
X151250000Y-111050000D02*
G75*
G03*
X152700000Y-112600000I1500000J-50000D01*
G01*
X152585385Y-112584160D02*
G75*
G03*
X153500000Y-112200000I124615J984160D01*
G01*
X163300000Y-112600000D02*
G75*
G03*
X164750000Y-111050000I-49999J1499999D01*
G01*
%TD*%
M02*
