%TF.GenerationSoftware,KiCad,Pcbnew,6.0.8-f2edbf62ab~116~ubuntu22.04.1*%
%TF.CreationDate,2022-10-15T18:03:23-07:00*%
%TF.ProjectId,syringe,73797269-6e67-4652-9e6b-696361645f70,rev?*%
%TF.SameCoordinates,Original*%
%TF.FileFunction,Legend,Top*%
%TF.FilePolarity,Positive*%
%FSLAX46Y46*%
G04 Gerber Fmt 4.6, Leading zero omitted, Abs format (unit mm)*
G04 Created by KiCad (PCBNEW 6.0.8-f2edbf62ab~116~ubuntu22.04.1) date 2022-10-15 18:03:23*
%MOMM*%
%LPD*%
G01*
G04 APERTURE LIST*
%ADD10C,0.150000*%
%ADD11C,0.120000*%
G04 APERTURE END LIST*
D10*
%TO.C,J1*%
X105402380Y-107083333D02*
X106116666Y-107083333D01*
X106259523Y-107130952D01*
X106354761Y-107226190D01*
X106402380Y-107369047D01*
X106402380Y-107464285D01*
X106402380Y-106083333D02*
X106402380Y-106654761D01*
X106402380Y-106369047D02*
X105402380Y-106369047D01*
X105545238Y-106464285D01*
X105640476Y-106559523D01*
X105688095Y-106654761D01*
%TO.C,H4*%
X96238095Y-110452380D02*
X96238095Y-109452380D01*
X96238095Y-109928571D02*
X96809523Y-109928571D01*
X96809523Y-110452380D02*
X96809523Y-109452380D01*
X97714285Y-109785714D02*
X97714285Y-110452380D01*
X97476190Y-109404761D02*
X97238095Y-110119047D01*
X97857142Y-110119047D01*
%TO.C,H3*%
X96238095Y-103452380D02*
X96238095Y-102452380D01*
X96238095Y-102928571D02*
X96809523Y-102928571D01*
X96809523Y-103452380D02*
X96809523Y-102452380D01*
X97190476Y-102452380D02*
X97809523Y-102452380D01*
X97476190Y-102833333D01*
X97619047Y-102833333D01*
X97714285Y-102880952D01*
X97761904Y-102928571D01*
X97809523Y-103023809D01*
X97809523Y-103261904D01*
X97761904Y-103357142D01*
X97714285Y-103404761D01*
X97619047Y-103452380D01*
X97333333Y-103452380D01*
X97238095Y-103404761D01*
X97190476Y-103357142D01*
%TO.C,H2*%
X165238095Y-111452380D02*
X165238095Y-110452380D01*
X165238095Y-110928571D02*
X165809523Y-110928571D01*
X165809523Y-111452380D02*
X165809523Y-110452380D01*
X166238095Y-110547619D02*
X166285714Y-110500000D01*
X166380952Y-110452380D01*
X166619047Y-110452380D01*
X166714285Y-110500000D01*
X166761904Y-110547619D01*
X166809523Y-110642857D01*
X166809523Y-110738095D01*
X166761904Y-110880952D01*
X166190476Y-111452380D01*
X166809523Y-111452380D01*
%TO.C,H1*%
X165238095Y-103452380D02*
X165238095Y-102452380D01*
X165238095Y-102928571D02*
X165809523Y-102928571D01*
X165809523Y-103452380D02*
X165809523Y-102452380D01*
X166809523Y-103452380D02*
X166238095Y-103452380D01*
X166523809Y-103452380D02*
X166523809Y-102452380D01*
X166428571Y-102595238D01*
X166333333Y-102690476D01*
X166238095Y-102738095D01*
%TO.C,U1*%
X117452380Y-107761904D02*
X118261904Y-107761904D01*
X118357142Y-107714285D01*
X118404761Y-107666666D01*
X118452380Y-107571428D01*
X118452380Y-107380952D01*
X118404761Y-107285714D01*
X118357142Y-107238095D01*
X118261904Y-107190476D01*
X117452380Y-107190476D01*
X118452380Y-106190476D02*
X118452380Y-106761904D01*
X118452380Y-106476190D02*
X117452380Y-106476190D01*
X117595238Y-106571428D01*
X117690476Y-106666666D01*
X117738095Y-106761904D01*
%TO.C,R2*%
X125833333Y-103802380D02*
X125500000Y-103326190D01*
X125261904Y-103802380D02*
X125261904Y-102802380D01*
X125642857Y-102802380D01*
X125738095Y-102850000D01*
X125785714Y-102897619D01*
X125833333Y-102992857D01*
X125833333Y-103135714D01*
X125785714Y-103230952D01*
X125738095Y-103278571D01*
X125642857Y-103326190D01*
X125261904Y-103326190D01*
X126214285Y-102897619D02*
X126261904Y-102850000D01*
X126357142Y-102802380D01*
X126595238Y-102802380D01*
X126690476Y-102850000D01*
X126738095Y-102897619D01*
X126785714Y-102992857D01*
X126785714Y-103088095D01*
X126738095Y-103230952D01*
X126166666Y-103802380D01*
X126785714Y-103802380D01*
%TO.C,R1*%
X114802380Y-107166666D02*
X114326190Y-107500000D01*
X114802380Y-107738095D02*
X113802380Y-107738095D01*
X113802380Y-107357142D01*
X113850000Y-107261904D01*
X113897619Y-107214285D01*
X113992857Y-107166666D01*
X114135714Y-107166666D01*
X114230952Y-107214285D01*
X114278571Y-107261904D01*
X114326190Y-107357142D01*
X114326190Y-107738095D01*
X114802380Y-106214285D02*
X114802380Y-106785714D01*
X114802380Y-106500000D02*
X113802380Y-106500000D01*
X113945238Y-106595238D01*
X114040476Y-106690476D01*
X114088095Y-106785714D01*
%TO.C,D1*%
X125261904Y-107802380D02*
X125261904Y-106802380D01*
X125500000Y-106802380D01*
X125642857Y-106850000D01*
X125738095Y-106945238D01*
X125785714Y-107040476D01*
X125833333Y-107230952D01*
X125833333Y-107373809D01*
X125785714Y-107564285D01*
X125738095Y-107659523D01*
X125642857Y-107754761D01*
X125500000Y-107802380D01*
X125261904Y-107802380D01*
X126785714Y-107802380D02*
X126214285Y-107802380D01*
X126500000Y-107802380D02*
X126500000Y-106802380D01*
X126404761Y-106945238D01*
X126309523Y-107040476D01*
X126214285Y-107088095D01*
D11*
%TO.C,U1*%
X121160000Y-107700000D02*
X121160000Y-106300000D01*
X118840000Y-106300000D02*
X118840000Y-108200000D01*
%TO.C,R2*%
X125772936Y-104265000D02*
X126227064Y-104265000D01*
X125772936Y-105735000D02*
X126227064Y-105735000D01*
%TO.C,R1*%
X115265000Y-107227064D02*
X115265000Y-106772936D01*
X116735000Y-107227064D02*
X116735000Y-106772936D01*
%TO.C,D1*%
X124140000Y-108040000D02*
X124140000Y-109960000D01*
X127000000Y-108040000D02*
X124140000Y-108040000D01*
X124140000Y-109960000D02*
X127000000Y-109960000D01*
%TD*%
M02*
